<?xml version="1.0" encoding="utf-8"?>
<svg version="1.1" id="Layer_1" xmlns="http://www.w3.org/2000/svg" xmlns:xlink="http://www.w3.org/1999/xlink" x="0px" y="0px"
	 viewBox="0 0 128 128" style="enable-background:new 0 0 128 128;" xml:space="preserve">
<style type="text/css">
	path{fill:#DD4814;}
</style>
<g>
	<path d="M6.4,64.3c0-10.8,11.1-16.1,20.4-12.2c-0.5,1.9-1,3.9-1.5,5.8C10.4,52.4,11,77,26.2,70.6c0.3,2,0.7,4,1,6
		C17.5,80.7,6.4,75.6,6.4,64.3z"/>
	<path d="M53.6,76.4c-4.5,1.3-9.9,2.1-14.5,1.1c-4.8-1.1-8.2-4.7-9.2-9.6c-0.9-4.5-0.2-10.2,3-13.7
		c3.3-3.7,9-4.1,13.3-2.2c0-3.5,0-7.1,0-10.6c0-0.2-0.1-0.9,0-1c0.3-0.3,1.7-0.3,2-0.3c1.7-0.3,3.5-0.6,5.2-0.8
		c0,10.9,0,21.7,0,32.6C53.6,73.3,53.6,74.9,53.6,76.4z M37.1,64.1c0,1.9,0.4,4,1.6,5.6c1.3,1.7,3.3,2,5.3,1.9c0.5,0,2,0.1,2.2-0.3
		c0.1-0.1,0-0.4,0-0.5c0.1-0.9,0-1.9,0-2.8c0-2.5,0-5,0-7.6c0-0.6,0.2-1.7,0-2.2c-0.4-0.9-2.7-1.2-3.6-1.2
		C38.5,56.9,37.1,60.5,37.1,64.1z"/>
	<path d="M60.5,52.3c1.2-0.4,2.8-0.7,4.8-1c2-0.3,4-0.5,6.2-0.5c2.2,0,4,0.3,5.5,0.9c1.5,0.6,2.6,1.4,3.5,2.4
		c0.8,1,1.5,2.3,1.8,3.7c0.4,1.4,0.5,3,0.5,4.8v14.6h-7.3V63.6c0-2.4-0.3-4-0.9-5s-1.8-1.5-3.5-1.5c-0.5,0-1.1,0-1.7,0.1
		s-1.1,0.1-1.6,0.2v19.9h-7.3V52.3z"/>
	<path d="M86.9,86.3c-0.5,0-1.1,0-2-0.1c-0.9-0.1-1.7-0.3-2.5-0.5l1-5.9c0.5,0.2,0.9,0.3,1.3,0.3
		c0.4,0.1,0.9,0.1,1.5,0.1c1.1,0,1.9-0.3,2.4-1c0.5-0.7,0.7-1.7,0.7-3V51.5h7.3v24.8c0,3.4-0.8,5.9-2.5,7.5
		C92.5,85.5,90.1,86.3,86.9,86.3z M97.3,44c0,5.6-8.7,5.6-8.7,0C88.6,38.4,97.3,38.4,97.3,44z"/>
	<path d="M110.9,72c1.7,0,5-0.6,3.2-3c-1.3-1.7-4.8-2.2-6.6-3.1c-4.4-2.2-6.7-7.9-3.2-12c3.3-3.9,9.5-3.5,14-2.5
		c2.5,0.6,2.4,0.5,1.9,2.7c-0.3,1.2-0.5,2.4-0.8,3.6c-2.1-0.7-6.6-2.2-8.7-0.6c-2.4,1.7,0.7,3.4,2.3,4.1c2.7,1.1,6,2,7.7,4.6
		c1.5,2.3,1.5,6,0,8.3c-3.1,4.8-11.3,4.3-16,3.1c-2.3-0.6-2.8-0.4-2.4-2.6c0.3-1.4,0.6-2.8,0.9-4.2C105.6,71.4,108.3,72,110.9,72z"
		/>
</g>
</svg>
